<svg width="1597" height="2005" viewBox="0 0 1597 2005" fill="none" xmlns="http://www.w3.org/2000/svg">
<path d="M1177.92 1734.18C1131.72 1734.18 1090.44 1719.93 1054.08 1691.42C1017.72 1663.91 983.808 1624.59 952.358 1573.49C920.907 1523.36 889.948 1468.32 859.481 1408.37C829.996 1349.4 800.02 1291.91 769.552 1235.89C740.067 1179.86 709.108 1131.71 676.675 1091.41C628.517 1151.36 583.798 1212.3 542.52 1274.22C502.224 1335.15 463.894 1401 427.529 1471.76C410.821 1502.23 394.113 1529.26 377.405 1552.85C360.697 1577.42 344.972 1589.7 330.229 1589.7C307.624 1589.7 296.322 1572.5 296.322 1538.1C296.322 1531.22 296.813 1523.36 297.796 1514.52C298.779 1506.65 300.253 1497.81 302.219 1487.98C307.133 1462.43 316.47 1428.52 330.229 1386.26C344.972 1343.01 361.68 1297.8 380.353 1250.63C399.027 1202.47 417.701 1156.77 436.374 1113.52C456.031 1069.3 473.23 1032.93 487.973 1004.43L499.767 982.316C472.248 980.351 443.746 983.299 414.261 991.162C384.776 998.042 355.783 1010.82 327.281 1029.49C315.487 1036.37 309.59 1037.35 309.59 1032.44C309.59 1020.65 321.875 1008.36 346.446 995.585C360.205 988.705 378.388 981.334 400.993 973.471C423.598 964.626 449.643 960.203 479.127 960.203C484.041 960.203 488.956 960.203 493.87 960.203C499.767 960.203 505.172 960.694 510.086 961.677C525.812 930.227 543.011 892.388 561.685 848.161C581.341 803.934 600.015 758.232 617.706 711.057C635.397 663.881 650.139 620.637 661.933 581.324C674.71 542.011 681.589 511.052 682.572 488.447C657.019 554.296 627.534 611.791 594.118 660.933C560.702 710.074 523.846 756.758 483.55 800.985C463.894 821.625 439.814 845.704 411.312 873.223C383.793 899.759 354.309 925.804 322.858 951.357C291.408 975.928 260.449 996.567 229.981 1013.28C200.496 1029.98 173.469 1038.34 148.898 1038.34C107.619 1038.34 77.1518 1029.98 57.4953 1013.28C38.8216 996.567 28.0105 976.42 25.062 952.832V945.46C25.062 931.701 28.0105 923.347 33.9075 920.398C33.9075 920.398 34.8903 920.398 36.8559 920.398C40.7872 920.398 42.7529 924.821 42.7529 933.667C42.7529 943.495 44.7185 954.306 48.6498 966.1C52.5811 977.894 61.918 983.791 76.6604 983.791C89.4371 983.791 110.568 980.351 140.053 973.471C170.52 965.608 203.936 951.357 240.301 930.718C286.494 905.165 340.549 865.852 402.467 812.779C464.385 758.724 532.691 683.538 607.386 587.221C627.043 561.667 643.259 534.64 656.036 506.138C669.795 477.636 682.572 452.574 694.366 430.951C706.16 408.346 720.411 393.113 737.119 385.25C744.982 382.302 751.37 380.827 756.284 380.827C774.958 380.827 789.209 392.13 799.037 414.735C809.848 437.34 815.254 463.385 815.254 492.869C815.254 499.749 815.254 506.629 815.254 513.509C815.254 519.406 814.271 525.794 812.305 532.674C809.357 551.348 799.528 579.358 782.82 616.705C767.095 653.07 747.439 693.857 723.851 739.067C700.263 784.277 676.675 828.996 653.087 873.223C629.5 916.467 608.86 954.306 591.169 986.739C619.671 1003.45 645.716 1022.12 669.304 1042.76C683.064 1025.07 696.332 1006.89 709.108 988.213C721.885 970.523 735.153 952.832 748.913 935.141C792.157 877.154 841.298 815.236 896.337 749.387C952.358 682.555 1012.31 617.688 1076.19 554.788C1139.09 492.869 1204.94 435.866 1273.74 383.776C1342.54 331.686 1411.83 290.899 1481.61 261.414C1496.35 255.517 1511.09 250.112 1525.84 245.198C1540.58 239.301 1555.32 234.878 1570.06 231.929C1573.01 230.947 1575.47 230.455 1577.43 230.455C1580.38 229.472 1582.35 228.981 1583.33 228.981C1588.25 228.981 1591.69 230.947 1593.65 234.878C1595.62 241.758 1594.63 244.706 1590.7 243.723C1575.96 239.792 1556.3 243.723 1531.73 255.517C1507.16 267.311 1481.12 283.036 1453.6 302.693C1426.08 322.349 1401.02 341.514 1378.41 360.188C1356.79 377.879 1332.22 399.01 1304.7 423.58C1278.16 448.151 1253.59 471.247 1230.99 492.869C1208.38 513.509 1192.17 528.743 1182.34 538.571C1168.58 551.348 1148.92 570.513 1123.37 596.066C1098.8 621.62 1070.79 651.104 1039.34 684.52C1008.87 716.954 976.928 751.353 943.512 787.717C911.079 823.099 879.629 857.498 849.161 890.914C819.676 924.33 793.631 954.306 771.026 980.842C757.267 996.567 743.999 1011.8 731.222 1026.54C719.428 1040.3 708.126 1054.55 697.315 1069.3C727.782 1099.76 759.724 1138.09 793.14 1184.29C827.539 1229.5 861.938 1277.16 896.337 1327.29C930.735 1376.43 964.152 1422.62 996.585 1465.87C1029.02 1510.09 1059.98 1545.97 1089.46 1573.49C1117.96 1598.06 1145.97 1621.15 1173.49 1642.78C1201.01 1665.38 1226.57 1676.68 1250.15 1676.68C1265.88 1676.68 1280.13 1670.29 1292.91 1657.52C1305.68 1644.74 1315.02 1628.03 1320.92 1607.39C1326.81 1586.75 1331.24 1565.13 1334.19 1542.53C1337.13 1519.92 1341.07 1499.28 1345.98 1480.61C1346.96 1478.64 1348.44 1477.66 1350.4 1477.66C1351.38 1477.66 1351.88 1482.57 1351.88 1492.4C1351.88 1511.08 1353.35 1528.28 1356.3 1544C1359.25 1559.73 1360.72 1574.96 1360.72 1589.7C1360.72 1602.48 1358.26 1615.26 1353.35 1628.03C1349.42 1641.79 1340.57 1655.55 1326.81 1669.31C1305.19 1690.93 1281.6 1707.15 1256.05 1717.96C1230.5 1728.77 1204.45 1734.18 1177.92 1734.18ZM333.178 1554.32C336.126 1554.32 340.549 1549.41 346.446 1539.58C350.377 1531.72 361.68 1512.55 380.353 1482.08C399.027 1451.62 419.175 1419.67 440.797 1386.26C468.316 1343.01 500.258 1293.87 536.623 1238.83C572.987 1182.81 612.3 1125.32 654.562 1066.35C642.768 1053.57 630.974 1042.27 619.18 1032.44C607.386 1022.61 594.609 1014.26 580.85 1007.38L529.251 1107.63C524.337 1117.45 515.983 1134.16 504.189 1157.75C493.378 1180.36 481.093 1205.42 467.333 1232.94C454.557 1259.47 442.271 1285.03 430.477 1309.6C419.666 1333.19 411.312 1350.88 405.415 1362.67C397.553 1379.38 387.725 1399.53 375.931 1423.11C365.12 1447.68 355.291 1469.8 346.446 1489.45C337.6 1510.09 332.195 1523.36 330.229 1529.26C329.246 1531.22 328.755 1533.19 328.755 1535.16C328.755 1538.1 328.755 1540.56 328.755 1542.53C328.755 1550.39 330.229 1554.32 333.178 1554.32Z" fill="#CE643A"/>
<path d="M1029.23 1299.47C1023.26 1299.47 1016.29 1297.98 1008.32 1294.99C1000.85 1292.5 994.129 1287.77 988.154 1280.8C982.677 1273.33 979.938 1262.87 979.938 1249.43C979.938 1243.95 980.685 1237.48 982.179 1230.01C987.158 1205.11 991.888 1186.19 996.37 1173.24C1001.35 1160.3 1004.34 1149.84 1005.33 1141.87C1003.84 1141.38 1001.6 1140.13 998.611 1138.14C995.623 1136.15 994.129 1133.41 994.129 1129.92C994.129 1126.44 995.623 1124.2 998.611 1123.2C1001.6 1122.2 1004.34 1121.71 1006.83 1121.71H1012.05C1016.04 1113.24 1020.27 1104.03 1024.75 1094.07C1029.73 1084.11 1036.95 1070.67 1046.41 1053.74C1054.88 1037.8 1065.83 1027.35 1079.28 1022.37C1093.22 1016.89 1108.9 1014.15 1126.33 1014.15C1143.26 1014.15 1154.96 1029.34 1161.43 1059.71C1164.42 1075.15 1165.92 1087.6 1165.92 1097.06C1165.92 1109.01 1161.93 1118.47 1153.97 1125.44C1146.5 1132.41 1137.04 1137.64 1125.58 1141.13C1114.63 1144.61 1103.67 1147.1 1092.72 1148.6C1081.77 1149.59 1073.05 1150.09 1066.58 1150.09C1060.11 1150.09 1054.38 1150.09 1049.4 1150.09C1044.92 1149.59 1041.68 1149.34 1039.69 1149.34C1032.22 1168.26 1026.25 1186.44 1021.76 1203.87C1017.28 1221.29 1015.04 1235.98 1015.04 1247.93C1015.04 1267.85 1022.51 1277.81 1037.45 1277.81C1046.41 1277.81 1055.62 1273.83 1065.08 1265.86C1075.04 1257.89 1084.5 1248.68 1093.47 1238.22C1102.43 1227.77 1110.15 1218.55 1116.62 1210.59C1123.09 1202.62 1127.33 1198.64 1129.32 1198.64C1132.8 1198.64 1134.55 1200.63 1134.55 1204.61C1134.55 1211.58 1130.56 1220.55 1122.6 1231.5C1114.63 1241.96 1104.67 1252.41 1092.72 1262.87C1081.27 1273.33 1069.57 1282.04 1057.62 1289.01C1046.16 1295.98 1036.7 1299.47 1029.23 1299.47ZM1076.29 1129.92C1095.21 1129.92 1109.4 1127.93 1118.86 1123.95C1128.82 1119.47 1134.05 1110.01 1134.55 1095.57C1134.55 1075.15 1131.81 1060.71 1126.33 1052.24C1121.35 1043.78 1116.62 1039.55 1112.14 1039.55C1106.16 1039.55 1099.69 1043.28 1092.72 1050.75C1086.25 1057.72 1079.77 1066.19 1073.3 1076.15C1067.33 1086.1 1061.85 1096.06 1056.87 1106.02C1051.89 1115.48 1048.4 1122.95 1046.41 1128.43C1048.9 1128.43 1052.89 1128.68 1058.36 1129.18C1063.84 1129.67 1069.82 1129.92 1076.29 1129.92ZM1100.88 1538.48C1092.92 1538.48 1088.93 1533.75 1088.93 1524.29C1088.93 1511.84 1093.41 1496.4 1102.38 1477.98C1110.84 1459.55 1121.55 1440.14 1134.49 1419.72C1147.44 1399.3 1160.39 1379.64 1173.33 1360.71C1186.28 1342.29 1197.23 1326.61 1206.2 1313.66C1215.66 1300.71 1220.89 1293 1221.88 1290.51C1224.87 1281.54 1226.86 1271.34 1227.86 1259.88C1229.35 1248.43 1230.1 1236.23 1230.1 1223.29C1230.1 1198.39 1228.35 1174.24 1224.87 1150.84C1221.88 1127.43 1217.15 1108.01 1210.68 1092.58C1204.7 1077.14 1196.74 1069.42 1186.78 1069.42C1184.79 1069.42 1182.79 1069.67 1180.8 1070.17C1178.81 1070.17 1177.32 1070.17 1176.32 1070.17C1174.33 1070.17 1173.33 1068.93 1173.33 1066.44C1173.33 1064.94 1174.33 1062.7 1176.32 1059.71C1178.81 1056.73 1183.29 1052.99 1189.76 1048.51C1192.25 1046.52 1194.99 1043.03 1197.98 1038.05C1201.47 1033.07 1204.95 1028.34 1208.44 1023.86C1211.92 1019.38 1215.16 1017.14 1218.15 1017.14C1225.62 1017.14 1232.34 1024.86 1238.31 1040.29C1244.29 1055.23 1249.02 1074.65 1252.5 1098.55C1256.49 1121.96 1258.48 1146.6 1258.48 1172.5C1258.48 1178.47 1258.23 1184.45 1257.73 1190.42C1257.73 1196.4 1257.73 1202.37 1257.73 1208.35C1257.73 1216.31 1259.72 1220.3 1263.71 1220.3C1268.69 1220.3 1275.91 1215.07 1285.37 1204.61C1294.83 1194.16 1305.04 1180.96 1315.99 1165.03C1327.44 1149.09 1338.4 1132.66 1348.85 1115.73C1359.31 1098.3 1367.78 1082.87 1374.25 1069.42C1381.22 1055.48 1384.71 1045.77 1384.71 1040.29C1384.71 1037.31 1383.46 1035.81 1380.97 1035.81C1379.48 1035.81 1377.73 1036.31 1375.74 1037.31C1373.75 1038.3 1371.76 1038.8 1369.77 1038.8C1367.28 1038.8 1365.29 1037.56 1363.79 1035.07C1363.79 1030.58 1367.28 1025.85 1374.25 1020.88C1381.72 1015.4 1389.93 1010.92 1398.9 1007.43C1407.86 1003.45 1415.08 1001.46 1420.56 1001.46C1423.05 1001.46 1424.79 1001.7 1425.79 1002.2C1427.28 1004.19 1428.03 1006.93 1428.03 1010.42C1428.03 1017.89 1424.29 1028.84 1416.82 1043.28C1409.85 1057.72 1400.64 1073.91 1389.19 1091.83C1377.73 1109.26 1365.29 1127.43 1351.84 1146.35C1338.4 1164.78 1325.2 1182.45 1312.26 1199.38C1299.31 1215.82 1287.86 1230.26 1277.9 1242.7C1268.44 1254.65 1261.72 1262.87 1257.73 1267.35C1257.73 1263.87 1256.99 1264.86 1255.49 1270.34C1254.5 1275.32 1253 1282.29 1251.01 1291.25C1249.52 1299.72 1247.28 1307.44 1244.29 1314.41C1241.8 1321.88 1239.06 1325.61 1236.07 1325.61C1233.58 1325.61 1230.84 1324.86 1227.86 1323.37C1225.37 1322.37 1223.62 1321.88 1222.63 1321.88C1185.78 1371.67 1159.89 1410.01 1144.95 1436.9C1129.51 1463.79 1121.8 1483.21 1121.8 1495.16C1121.8 1501.13 1122.79 1505.61 1124.78 1508.6C1126.78 1512.09 1127.77 1515.32 1127.77 1518.31C1127.77 1523.79 1124.78 1528.52 1118.81 1532.5C1112.34 1536.49 1106.36 1538.48 1100.88 1538.48Z" fill="white"/>
</svg>
