<svg width="751" height="580" viewBox="0 0 751 580" fill="none" xmlns="http://www.w3.org/2000/svg">
<path d="M182.583 425L97.2746 305.723V425H21.6166V152.863H97.2746V270.21L181.811 152.863H269.049L169.073 284.878L274.067 425H182.583Z" fill="#CE643A"/>
<path d="M259.04 350.32V354.32H262.429L262.986 350.978L259.04 350.32ZM142.4 350.32V346.32H138.053L138.414 350.652L142.4 350.32ZM154.496 377.392L151.79 380.337L154.496 377.392ZM212.672 367.888V363.888H210.183L209.084 366.121L212.672 367.888ZM256.16 367.888L259.991 369.037L261.536 363.888H256.16V367.888ZM229.664 405.904L232.064 409.104L232.079 409.093L232.094 409.081L229.664 405.904ZM140.096 410.512L138.111 413.985L138.144 414.004L138.177 414.021L140.096 410.512ZM111.584 381.424L108.062 383.32L108.073 383.341L108.085 383.362L111.584 381.424ZM111.584 294.736L108.062 292.84L111.584 294.736ZM139.808 265.936L141.751 269.433H141.751L139.808 265.936ZM222.176 265.648L220.253 269.155L220.264 269.162L220.276 269.168L222.176 265.648ZM250.112 293.584L246.592 295.484L246.61 295.517L246.629 295.55L250.112 293.584ZM218.432 323.248V327.248H222.507L222.431 323.174L218.432 323.248ZM207.2 298.48L204.577 301.5L204.6 301.52L204.623 301.54L207.2 298.48ZM155.072 298.192L157.724 301.186L157.729 301.182L155.072 298.192ZM142.688 323.248L138.728 322.682L138.076 327.248H142.688V323.248ZM256.192 334.768C256.192 340.356 255.819 345.315 255.094 349.662L262.986 350.978C263.797 346.109 264.192 340.7 264.192 334.768H256.192ZM259.04 346.32H142.4V354.32H259.04V346.32ZM138.414 350.652C139.44 362.963 143.804 373 151.79 380.337L157.203 374.447C150.98 368.728 147.28 360.717 146.386 349.988L138.414 350.652ZM151.79 380.337C159.69 387.597 169.415 391.184 180.704 391.184V383.184C171.257 383.184 163.51 380.243 157.202 374.447L151.79 380.337ZM180.704 391.184C188.772 391.184 195.927 389.447 201.995 385.785C208.073 382.116 212.807 376.667 216.26 369.655L209.084 366.121C206.201 371.973 202.439 376.172 197.861 378.935C193.273 381.705 187.612 383.184 180.704 383.184V391.184ZM212.672 371.888H256.16V363.888H212.672V371.888ZM252.329 366.739C247.969 381.271 239.639 393.241 227.234 402.727L232.094 409.081C245.801 398.599 255.135 385.225 259.991 369.037L252.329 366.739ZM227.264 402.704C215.01 411.894 199.858 416.592 181.568 416.592V424.592C201.294 424.592 218.206 419.498 232.064 409.104L227.264 402.704ZM181.568 416.592C166.812 416.592 153.659 413.37 142.015 407.003L138.177 414.021C151.109 421.094 165.604 424.592 181.568 424.592V416.592ZM142.081 407.039C130.636 400.499 121.649 391.342 115.083 379.486L108.085 383.362C115.343 396.466 125.364 406.701 138.111 413.985L142.081 407.039ZM115.106 379.528C108.744 367.713 105.504 353.983 105.504 338.224H97.504C97.504 355.105 100.984 370.175 108.062 383.32L115.106 379.528ZM105.504 338.224C105.504 322.264 108.748 308.44 115.106 296.632L108.062 292.84C100.98 305.992 97.504 321.16 97.504 338.224H105.504ZM115.106 296.632C121.473 284.808 130.34 275.772 141.751 269.433L137.865 262.439C125.084 269.54 115.135 279.703 108.062 292.84L115.106 296.632ZM141.751 269.433C153.175 263.086 166.409 259.856 181.568 259.856V251.856C165.239 251.856 150.633 255.346 137.865 262.439L141.751 269.433ZM181.568 259.856C196.144 259.856 209.005 262.987 220.253 269.155L224.099 262.141C211.539 255.253 197.328 251.856 181.568 251.856V259.856ZM220.276 269.168C231.686 275.326 240.434 284.074 246.592 295.484L253.632 291.684C246.734 278.902 236.858 269.026 224.076 262.128L220.276 269.168ZM246.629 295.55C252.966 306.776 256.192 319.809 256.192 334.768H264.192C264.192 318.623 260.698 304.2 253.595 291.618L246.629 295.55ZM222.431 323.174C222.22 311.765 218.038 302.378 209.777 295.42L204.623 301.54C210.954 306.87 214.26 313.995 214.433 323.322L222.431 323.174ZM209.823 295.46C201.729 288.431 191.843 284.976 180.416 284.976V292.976C190.109 292.976 198.079 295.857 204.577 301.5L209.823 295.46ZM180.416 284.976C169.537 284.976 160.12 288.353 152.415 295.202L157.729 301.182C163.848 295.743 171.327 292.976 180.416 292.976V284.976ZM152.42 295.198C144.849 301.904 140.369 311.197 138.728 322.682L146.648 323.814C148.079 313.795 151.855 306.384 157.724 301.186L152.42 295.198ZM142.688 327.248H218.432V319.248H142.688V327.248ZM442.262 258.448L445.949 259.998L448.282 254.448H442.262V258.448ZM343.478 493.456V497.456H346.136L347.165 495.006L343.478 493.456ZM300.566 493.456L296.898 491.861L294.465 497.456H300.566V493.456ZM335.126 413.968L338.794 415.563L339.469 414.012L338.826 412.447L335.126 413.968ZM271.19 258.448V254.448H265.221L267.49 259.969L271.19 258.448ZM316.406 258.448L320.158 257.062L319.192 254.448H316.406V258.448ZM357.59 369.904L353.838 371.29L357.564 381.374L361.336 371.307L357.59 369.904ZM399.35 258.448V254.448H396.577L395.604 257.045L399.35 258.448ZM438.575 256.898L339.791 491.906L347.165 495.006L445.949 259.998L438.575 256.898ZM343.478 489.456H300.566V497.456H343.478V489.456ZM304.234 495.051L338.794 415.563L331.458 412.373L296.898 491.861L304.234 495.051ZM338.826 412.447L274.89 256.927L267.49 259.969L331.426 415.489L338.826 412.447ZM271.19 262.448H316.406V254.448H271.19V262.448ZM312.654 259.834L353.838 371.29L361.342 368.518L320.158 257.062L312.654 259.834ZM361.336 371.307L403.096 259.851L395.604 257.045L353.844 368.501L361.336 371.307ZM399.35 262.448H442.262V254.448H399.35V262.448ZM614.621 258.448H618.621V254.448H614.621V258.448ZM614.621 418V422H618.621V418H614.621ZM574.013 418H570.013V422H574.013V418ZM574.013 397.84H578.013V385.84L570.813 395.44L574.013 397.84ZM553.565 414.256L555.252 417.883L555.27 417.874L555.288 417.866L553.565 414.256ZM493.373 412.24L491.419 415.73L491.445 415.745L491.472 415.76L493.373 412.24ZM470.621 388.912L467.07 390.753L467.091 390.793L467.112 390.832L470.621 388.912ZM462.557 258.448V254.448H458.557V258.448H462.557ZM502.877 258.448H506.877V254.448H502.877V258.448ZM512.381 375.664L509.432 378.367L509.451 378.388L509.471 378.408L512.381 375.664ZM564.509 375.664L567.419 378.408L567.439 378.388L567.458 378.367L564.509 375.664ZM574.013 258.448V254.448H570.013V258.448H574.013ZM610.621 258.448V418H618.621V258.448H610.621ZM614.621 414H574.013V422H614.621V414ZM578.013 418V397.84H570.013V418H578.013ZM570.813 395.44C566.048 401.793 559.757 406.868 551.842 410.646L555.288 417.866C564.269 413.579 571.61 407.711 577.213 400.24L570.813 395.44ZM551.878 410.629C544.19 414.205 535.747 416.016 526.493 416.016V424.016C536.823 424.016 546.428 421.987 555.252 417.883L551.878 410.629ZM526.493 416.016C514.58 416.016 504.21 413.546 495.274 408.72L491.472 415.76C501.736 421.302 513.446 424.016 526.493 424.016V416.016ZM495.327 408.75C486.419 403.761 479.358 396.546 474.13 386.992L467.112 390.832C473.02 401.63 481.127 409.967 491.419 415.73L495.327 408.75ZM474.172 387.071C469.148 377.382 466.557 365.752 466.557 352.048H458.557C458.557 366.76 461.342 379.706 467.07 390.753L474.172 387.071ZM466.557 352.048V258.448H458.557V352.048H466.557ZM462.557 262.448H502.877V254.448H462.557V262.448ZM498.877 258.448V346.288H506.877V258.448H498.877ZM498.877 346.288C498.877 359.604 502.212 370.491 509.432 378.367L515.33 372.961C509.878 367.013 506.877 358.316 506.877 346.288H498.877ZM509.471 378.408C516.702 386.077 526.476 389.744 538.301 389.744V381.744C528.238 381.744 520.732 378.691 515.291 372.92L509.471 378.408ZM538.301 389.744C550.294 389.744 560.175 386.092 567.419 378.408L561.599 372.92C556.171 378.676 548.58 381.744 538.301 381.744V389.744ZM567.458 378.367C574.678 370.491 578.013 359.604 578.013 346.288H570.013C570.013 358.316 567.012 367.013 561.56 372.961L567.458 378.367ZM578.013 346.288V258.448H570.013V346.288H578.013ZM574.013 262.448H614.621V254.448H574.013V262.448ZM694.723 283.216H690.723V297.382L698.133 285.308L694.723 283.216ZM714.883 263.344L712.907 259.866L712.89 259.876L712.873 259.886L714.883 263.344ZM743.683 256.144H747.683V252.144H743.683V256.144ZM743.683 298.48V302.48H747.683V298.48H743.683ZM704.227 307.408L701.532 304.452L701.51 304.472L701.489 304.493L704.227 307.408ZM694.723 418V422H698.723V418H694.723ZM654.403 418H650.403V422H654.403V418ZM654.403 258.448V254.448H650.403V258.448H654.403ZM694.723 258.448H698.723V254.448H694.723V258.448ZM698.133 285.308C702.984 277.402 709.232 271.257 716.894 266.802L712.873 259.886C704.023 265.031 696.83 272.134 691.314 281.124L698.133 285.308ZM716.859 266.822C724.642 262.4 733.548 260.144 743.683 260.144V252.144C732.314 252.144 722.02 254.688 712.907 259.866L716.859 266.822ZM739.683 256.144V298.48H747.683V256.144H739.683ZM743.683 294.48H733.027V302.48H743.683V294.48ZM733.027 294.48C719.788 294.48 709.063 297.586 701.532 304.452L706.922 310.364C712.448 305.326 720.923 302.48 733.027 302.48V294.48ZM701.489 304.493C693.936 311.587 690.723 323.356 690.723 338.512H698.723C698.723 324.1 701.846 315.133 706.966 310.323L701.489 304.493ZM690.723 338.512V418H698.723V338.512H690.723ZM694.723 414H654.403V422H694.723V414ZM658.403 418V258.448H650.403V418H658.403ZM654.403 262.448H694.723V254.448H654.403V262.448ZM690.723 258.448V283.216H698.723V258.448H690.723Z" fill="white"/>
</svg>
